<?xml version="1.0" encoding="UTF-8" standalone="no"?>
<!-- Created with Inkscape (http://www.inkscape.org/) -->

<svg
   xmlns:dc="http://purl.org/dc/elements/1.1/"
   xmlns:cc="http://creativecommons.org/ns#"
   xmlns:rdf="http://www.w3.org/1999/02/22-rdf-syntax-ns#"
   xmlns:svg="http://www.w3.org/2000/svg"
   xmlns="http://www.w3.org/2000/svg"
   xmlns:sodipodi="http://sodipodi.sourceforge.net/DTD/sodipodi-0.dtd"
   xmlns:inkscape="http://www.inkscape.org/namespaces/inkscape"
   width="200"
   height="200"
   id="svg2"
   version="1.1"
   inkscape:version="0.48.1 r9760"
   inkscape:export-filename="/home/dave/Work/partisan/images/hr.png"
   inkscape:export-xdpi="90"
   inkscape:export-ydpi="90"
   sodipodi:docname="hr.svg">
  <defs
     id="defs4" />
  <sodipodi:namedview
     id="base"
     pagecolor="#ffffff"
     bordercolor="#666666"
     borderopacity="1.0"
     inkscape:pageopacity="0.0"
     inkscape:pageshadow="2"
     inkscape:zoom="1.979899"
     inkscape:cx="37.509618"
     inkscape:cy="41.546185"
     inkscape:document-units="px"
     inkscape:current-layer="layer1"
     showgrid="false"
     inkscape:window-width="1920"
     inkscape:window-height="1123"
     inkscape:window-x="0"
     inkscape:window-y="24"
     inkscape:window-maximized="1" />
  <metadata
     id="metadata7">
    <rdf:RDF>
      <cc:Work
         rdf:about="">
        <dc:format>image/svg+xml</dc:format>
        <dc:type
           rdf:resource="http://purl.org/dc/dcmitype/StillImage" />
        <dc:title></dc:title>
      </cc:Work>
    </rdf:RDF>
  </metadata>
  <g
     inkscape:label="Layer 1"
     inkscape:groupmode="layer"
     id="layer1"
     transform="translate(0,-852.36218)">
    <path
       id="path3759"
       style="fill:none;stroke:#b0925f;stroke-width:3.03859353;stroke-linecap:round;stroke-linejoin:miter;stroke-miterlimit:0;stroke-opacity:1;stroke-dasharray:none"
       d="m 131.5207,944.01447 c 3.36602,1.29978 4.39512,5.44327 3.03281,8.55034 -2.02935,4.62841 -7.82897,5.9855 -12.1648,3.91716 -6.09009,-2.90519 -7.82023,-10.65099 -4.8993,-16.41599 3.92721,-7.7511 13.90873,-9.89909 21.30294,-5.97917 9.61136,5.09532 12.22188,17.60169 7.15669,26.82481 -6.40939,11.67073 -21.7294,14.78839 -32.98087,8.43179 -6.46309,-3.65137 -11.14246,-9.97169 -13.005555,-17.13235 m -31.483313,8.49884 c -3.36602,-1.29978 -4.39512,-5.44327 -3.03281,-8.55035 2.02935,-4.6284 7.82897,-5.98549 12.1648,-3.91715 6.09009,2.90518 7.82022,10.65098 4.8993,16.41599 -3.92721,7.7511 -13.90873,9.89909 -21.30294,5.97917 -9.61136,-5.09532 -12.22188,-17.60169 -7.15668,-26.82481 6.40938,-11.67073 21.72938,-14.78839 32.98085,-8.43179 6.4631,3.65137 11.142473,9.97169 13.005568,17.13235"
       inkscape:connector-curvature="0" />
  </g>
</svg>
